<?xml version="1.0" encoding="iso-8859-1"?>
<!-- Uploaded to: SVG Repo, www.svgrepo.com, Generator: SVG Repo Mixer Tools -->
<svg fill="#000000" version="1.1" id="Layer_1" xmlns="http://www.w3.org/2000/svg" xmlns:xlink="http://www.w3.org/1999/xlink" 
	 viewBox="0 0 512 512" xml:space="preserve">
<g>
	<g>
		<path d="M431.584,212.326v-55.131h-33.391v55.13h-32.041v-72.304H332.76v72.306h-32.041v-88.823h-33.391v88.823h-32.041v-72.306
			h-33.391v72.306h-20.958v59.087l-24.026-15.895l-18.424,27.848l42.45,28.084v111.79h20.958V512h229.689v-88.761h20.958V212.326
			H431.584z M398.192,478.609H235.286v-55.369h162.906V478.609z M419.15,389.848H214.328v-144.13H419.15V389.848z"/>
	</g>
</g>
<g>
	<g>
		<rect x="77.304" y="203.534" transform="matrix(0.5518 -0.834 0.834 0.5518 -152.9406 183.2325)" width="33.392" height="60.74"/>
	</g>
</g>
<g>
	<g>
		<rect x="201.892" y="32.725" width="33.391" height="73.606"/>
	</g>
</g>
<g>
	<g>
		<rect x="332.763" y="32.725" width="33.391" height="73.606"/>
	</g>
</g>
<g>
	<g>
		<rect x="267.327" width="33.391" height="89.155"/>
	</g>
</g>
<g>
	<g>
		<rect x="398.188" y="67.384" width="33.391" height="55.458"/>
	</g>
</g>
<g>
	<g>
		<circle cx="360.612" cy="450.927" r="11.45"/>
	</g>
</g>
</svg>