<?xml version="1.0" encoding="iso-8859-1"?>
<!-- Uploaded to: SVG Repo, www.svgrepo.com, Generator: SVG Repo Mixer Tools -->
<svg fill="#000000" version="1.1" id="Layer_1" xmlns="http://www.w3.org/2000/svg" xmlns:xlink="http://www.w3.org/1999/xlink" 
	 viewBox="0 0 511.999 511.999" xml:space="preserve">
<g>
	<g>
		<rect x="206.249" y="377.772" width="99.502" height="33.39"/>
	</g>
</g>
<g>
	<g>
		<path d="M359.64,273.531c-1.55,1.201-3.49,1.922-5.603,1.922c-5.064,0-9.17-4.106-9.17-9.171c0-3.658,2.148-6.808,5.248-8.28
			c-4.462-3.512-10.086-5.612-16.204-5.612c-14.486,0-26.228,11.743-26.228,26.228c0,14.486,11.743,26.228,26.228,26.228
			c14.483,0,26.227-11.742,26.227-26.228C360.137,276.878,359.964,275.177,359.64,273.531z"/>
	</g>
</g>
<g>
	<g>
		<circle cx="181.296" cy="278.615" r="26.228"/>
	</g>
</g>
<g>
	<g>
		<path d="M510.752,321.71c-2.637-46.848-9.444-89.684-20.235-127.318c-13.734-47.899-34.034-87.593-60.334-117.98
			C387.28,26.847,328.676,1.714,256,1.714S124.72,26.847,81.817,76.413c-26.3,30.387-46.6,70.081-60.334,117.98
			C10.691,232.026,3.884,274.862,1.247,321.71c-4.464,79.318,4.46,142.167,4.841,144.805l2.072,14.301h163.424
			c25.948,19.396,54.529,29.469,84.414,29.469c29.885,0,58.467-10.073,84.414-29.469h163.424l2.072-14.301
			C506.292,463.878,515.216,401.028,510.752,321.71z M37.468,447.425c-4.847-47.486-15.18-202.76,41.878-308.529h85.261v20.716
			c-29.311,11.465-54.895,14.64-74.768,15.744l-12.629,0.701l-2.742,12.348c-18.56,83.554,6.154,188.874,60.102,256.121
			c0.787,0.981,1.582,1.939,2.376,2.898H37.468z M181.301,243.477c19.377,0,35.142,15.764,35.142,35.142
			c0,19.377-15.764,35.142-35.142,35.142s-35.143-15.764-35.143-35.142C146.158,259.241,161.923,243.477,181.301,243.477z
			 M256,476.893c-43.524,0-75.896-28.964-95.388-53.26c-22.843-28.475-40.811-66.677-50.596-107.57
			c-8.847-36.977-10.647-74.943-5.262-108.337c17.29-1.631,37.509-5.023,59.852-12.51v16.938
			c-29.745,7.475-51.838,34.435-51.838,66.466c0,37.788,30.743,68.532,68.533,68.532c37.788,0,68.532-30.743,68.532-68.532
			c0-32.031-22.092-58.991-51.837-66.466v-30.731c18.435-9.101,37.885-21.232,58.009-37.447
			c26.894,21.634,55.149,37.966,84.16,48.626c21.269,7.814,43.326,12.786,67.077,15.098c5.388,33.399,3.591,71.379-5.259,108.362
			c-9.784,40.893-27.753,79.095-50.596,107.57C331.895,447.929,299.523,476.893,256,476.893z M474.543,447.425h-99.486
			c0.795-0.959,1.589-1.918,2.376-2.898c53.948-67.247,78.662-172.568,60.102-256.121l-2.742-12.348l-12.629-0.701
			c-36.537-2.029-92.379-11.052-155.199-65.747l-10.963-9.544l-10.963,9.544c-16.216,14.12-31.966,25.188-47.042,33.886v-37.99
			h-96.88c1.934-2.456,3.904-4.882,5.947-7.241c36.276-41.911,86.385-63.161,148.935-63.161c62.526,0,112.621,21.234,148.893,63.111
			c52.772,60.929,68.545,155.83,72.485,224.713C480.494,377.421,476.879,424.729,474.543,447.425z"/>
	</g>
</g>
</svg>