<?xml version="1.0" encoding="UTF-8" standalone="no"?>
<svg
   xmlns:dc="http://purl.org/dc/elements/1.1/"
   xmlns:cc="http://creativecommons.org/ns#"
   xmlns:rdf="http://www.w3.org/1999/02/22-rdf-syntax-ns#"
   xmlns:svg="http://www.w3.org/2000/svg"
   xmlns="http://www.w3.org/2000/svg"
   xmlns:sodipodi="http://sodipodi.sourceforge.net/DTD/sodipodi-0.dtd"
   xmlns:inkscape="http://www.inkscape.org/namespaces/inkscape"
   width="264.00"
   height="264.00"
   viewBox="0.00 0.00 1100.00 1100.00"
   version="1.1"
   id="svg863"
   sodipodi:docname="Beard.svg"
   inkscape:version="1.0.2-2 (e86c870879, 2021-01-15)">
  <metadata
     id="metadata869">
    <rdf:RDF>
      <cc:Work
         rdf:about="">
        <dc:format>image/svg+xml</dc:format>
        <dc:type
           rdf:resource="http://purl.org/dc/dcmitype/StillImage" />
      </cc:Work>
    </rdf:RDF>
  </metadata>
  <defs
     id="defs867" />
  <sodipodi:namedview
     pagecolor="#ffffff"
     bordercolor="#666666"
     borderopacity="1"
     objecttolerance="10"
     gridtolerance="10"
     guidetolerance="10"
     inkscape:pageopacity="0"
     inkscape:pageshadow="2"
     inkscape:window-width="1566"
     inkscape:window-height="1020"
     id="namedview865"
     showgrid="false"
     inkscape:zoom="0.52966048"
     inkscape:cx="156.06186"
     inkscape:cy="329.29131"
     inkscape:window-x="32"
     inkscape:window-y="0"
     inkscape:window-maximized="0"
     inkscape:current-layer="svg863" />
  <g
     stroke-linecap="round"
     transform="translate(-52.00, -70.00)"
     id="Layer_1"
     style="stroke-width:70.86614175;stroke-miterlimit:4;stroke-dasharray:none">
    <path
       d="M601.96,118.73 C588.28,120.05 553.59,123.52 538.56,127.00 C531.17,128.73 515.62,133.73 508.69,136.60 C504.40,138.39 488.29,146.09 481.64,149.60 C477.44,151.87 461.84,161.60 455.33,166.04 C448.87,170.68 436.32,180.42 430.25,185.50 C424.36,190.63 413.59,201.34 408.35,206.90 C403.18,212.62 393.16,224.48 388.37,230.56 C381.46,239.70 376.95,246.27 370.78,256.10 C366.74,262.87 358.98,276.82 355.32,283.92 C351.81,291.08 345.26,305.46 342.50,312.58 C339.86,319.71 334.93,334.25 332.65,341.66 C330.51,349.11 326.68,364.06 324.98,371.56 C323.87,376.83 320.95,393.92 319.88,401.43 C318.94,408.98 317.56,424.38 317.18,432.34 C316.94,443.65 317.15,453.64 317.85,465.61 C318.91,478.90 322.76,510.78 323.99,520.91"
       fill="none"
       stroke="rgb(0, 0, 0)"
       stroke-width="30.00"
       stroke-opacity="1.00"
       stroke-linejoin="round"
       id="path852"
       style="stroke-width:70.86614175;stroke-miterlimit:4;stroke-dasharray:none" />
    <path
       d="M597.26,616.51 C600.48,615.83 606.10,616.93 607.57,617.93 C610.27,619.82 622.22,634.66 627.22,640.93 C638.98,656.07 655.43,677.24 660.12,683.28 C660.12,683.28 696.58,610.43 696.58,610.43 C698.20,611.76 702.29,615.10 704.75,617.11 C710.54,622.01 720.07,635.21 723.89,641.60 C727.81,648.21 734.91,662.07 738.29,670.48 C741.17,677.65 746.94,695.72 749.32,704.23 C752.33,716.09 758.88,745.87 760.40,752.73 C764.42,748.86 774.66,739.03 780.86,733.07 C789.42,724.54 799.26,713.76 803.60,707.79 C808.40,701.12 812.06,690.12 813.11,687.02 C813.11,687.02 823.19,730.65 823.19,730.65 C825.47,736.43 831.61,751.91 835.34,759.23 C838.48,765.35 847.64,778.42 851.97,783.51 C856.77,789.10 868.31,799.03 874.77,803.45 C880.37,807.26 895.59,815.89 900.29,817.61 C903.91,818.91 911.74,820.40 915.91,820.59 C920.17,820.75 928.68,819.97 932.64,819.17 C940.08,817.62 955.66,812.09 964.20,807.95 C968.43,805.90 1001.41,788.03 1007.50,784.75 C1002.47,782.56 985.95,775.42 981.84,773.29 C973.38,768.86 960.92,759.88 954.66,754.29 C949.16,749.33 937.92,737.45 933.48,731.34 C928.79,724.83 921.65,711.33 918.95,704.45 C916.33,697.75 912.80,685.06 910.88,675.59 C907.52,659.30 900.76,627.68 897.36,612.35 C893.49,596.35 885.47,565.14 881.04,551.81 C878.61,544.69 871.68,529.09 868.02,522.57 C864.22,515.84 856.01,504.80 850.96,499.69 C845.29,493.98 834.16,486.07 827.86,482.58 C821.32,478.98 806.38,472.62 798.54,470.25 C790.53,467.85 774.77,464.84 766.06,464.01 C758.80,463.43 743.54,463.07 735.64,463.19 C727.54,463.52 711.26,464.77 703.19,465.67 C695.18,466.76 679.12,469.49 670.39,471.51 C661.51,473.73 643.92,478.83 635.21,481.72 C621.23,486.66 599.55,494.36 599.13,494.33 C598.92,494.31 556.51,478.91 547.69,476.22 C538.97,473.71 521.11,469.54 513.16,468.17 C505.48,466.98 489.65,465.07 481.51,464.34 C473.21,463.77 456.90,463.22 449.06,463.27 C440.38,463.51 425.22,464.83 418.00,466.18 C409.34,467.81 393.50,472.57 385.95,475.79 C378.61,478.95 365.81,486.07 359.88,490.28 C354.68,494.02 343.99,504.80 339.75,510.49 C335.78,515.84 328.32,529.09 324.95,536.64 C321.39,544.69 316.74,558.48 314.58,565.45 C311.20,577.06 302.78,612.03 299.17,627.65 C295.77,643.69 287.13,685.30 285.68,690.54 C283.67,697.75 278.35,711.33 274.95,717.79 C271.21,724.83 262.08,737.45 256.33,743.55 C250.84,749.33 239.08,759.88 234.17,763.44 C226.62,768.86 214.05,775.42 202.55,780.38 C199.64,781.64 194.62,783.82 192.50,784.75 C203.66,790.78 238.10,809.45 248.25,813.42 C256.30,816.54 272.21,820.39 279.84,820.62 C284.15,820.72 292.23,819.80 296.01,818.79 C301.29,817.32 316.66,809.06 322.38,805.35 C328.53,801.34 340.34,791.87 345.54,786.29 C349.78,781.71 359.77,768.11 362.40,763.50 C367.15,755.09 376.40,731.68 376.81,730.65 C376.81,730.65 386.89,687.02 386.89,687.02 C389.95,696.12 392.47,702.94 399.92,712.41 C406.58,720.80 431.11,744.57 439.60,752.73 C442.43,739.89 449.53,707.87 454.29,691.62 C457.89,680.45 463.34,666.07 466.95,658.55 C469.61,653.02 477.46,639.20 481.39,633.26 C487.06,624.85 493.80,618.31 502.01,611.59 C502.48,611.21 502.95,610.82 503.42,610.43 C503.42,610.43 539.88,683.28 539.88,683.28 C548.18,671.89 568.37,644.30 578.27,631.33 C580.31,628.80 585.38,622.44 588.77,619.76 C590.78,618.19 596.16,616.80 597.26,616.51 Z"
       fill="none"
       stroke="rgb(0, 0, 0)"
       stroke-width="30.00"
       stroke-opacity="1.00"
       stroke-linejoin="round"
       id="path854"
       style="stroke-width:70.86614175;stroke-miterlimit:4;stroke-dasharray:none" />
    <path
       d="M329.21,807.76 C327.08,819.53 323.04,841.95 322.97,848.65 C322.96,853.03 323.92,861.83 324.89,866.24 C326.69,874.23 333.27,889.59 337.72,896.89 C342.26,904.28 349.59,913.51 359.51,925.32 C364.03,930.71 371.76,939.92 374.97,943.74 C376.86,938.71 383.47,921.19 384.83,918.05 C388.35,910.00 397.60,895.16 403.42,888.56 C407.95,883.45 426.44,867.39 427.22,866.72 C428.10,879.87 430.44,915.15 432.41,929.25 C433.67,937.81 437.38,954.13 440.06,961.07 C442.09,966.26 449.17,978.62 454.31,986.44 C465.25,1002.39 494.39,1038.99 495.08,1039.87 C495.08,1039.87 528.32,982.94 528.32,982.94 C539.07,1012.87 556.24,1059.64 562.34,1074.85 C565.32,1081.99 571.90,1094.38 575.95,1099.84 C580.23,1105.56 593.72,1116.61 593.72,1116.67 C593.71,1116.77 593.30,1116.82 592.50,1116.81"
       fill="none"
       stroke="rgb(0, 0, 0)"
       stroke-width="30.00"
       stroke-opacity="1.00"
       stroke-linejoin="round"
       id="path856"
       style="stroke-width:70.86614175;stroke-miterlimit:4;stroke-dasharray:none" />
    <path
       d="M598.04,118.73 C611.72,120.05 646.41,123.52 661.44,127.00 C668.83,128.73 684.38,133.73 691.31,136.60 C695.60,138.39 711.71,146.09 718.36,149.60 C722.56,151.87 738.16,161.60 744.67,166.04 C751.13,170.68 763.68,180.42 769.75,185.50 C775.64,190.63 786.41,201.34 791.65,206.90 C796.82,212.62 806.84,224.48 811.63,230.56 C818.54,239.70 823.05,246.27 829.22,256.10 C833.26,262.87 841.02,276.82 844.68,283.92 C848.19,291.08 854.74,305.46 857.50,312.58 C860.14,319.71 865.07,334.25 867.35,341.66 C869.49,349.11 873.32,364.06 875.02,371.56 C876.13,376.83 879.05,393.92 880.12,401.43 C881.06,408.98 882.44,424.38 882.82,432.34 C883.06,443.65 882.85,453.64 882.15,465.61 C881.09,478.90 877.24,510.78 876.01,520.91"
       fill="none"
       stroke="rgb(0, 0, 0)"
       stroke-width="30.00"
       stroke-opacity="1.00"
       stroke-linejoin="round"
       id="path858"
       style="stroke-width:70.86614175;stroke-miterlimit:4;stroke-dasharray:none" />
    <path
       d="M870.79,807.76 C872.92,819.53 876.96,841.95 877.03,848.65 C877.04,853.03 876.08,861.83 875.11,866.24 C873.31,874.23 866.73,889.59 862.28,896.89 C857.74,904.28 850.41,913.51 840.49,925.32 C835.97,930.71 828.24,939.92 825.03,943.74 C823.14,938.71 816.53,921.19 815.17,918.05 C811.65,910.00 802.40,895.16 796.58,888.56 C792.05,883.45 773.56,867.39 772.78,866.72 C771.90,879.87 769.56,915.15 767.59,929.25 C766.33,937.81 762.62,954.13 759.94,961.07 C757.91,966.26 750.83,978.62 745.69,986.44 C734.75,1002.39 705.61,1038.99 704.92,1039.87 C704.92,1039.87 671.68,982.94 671.68,982.94 C660.93,1012.87 643.76,1059.64 637.66,1074.85 C634.68,1081.99 628.10,1094.38 624.05,1099.84 C619.77,1105.56 606.28,1116.61 606.28,1116.67 C606.29,1116.77 606.70,1116.82 607.50,1116.81"
       fill="none"
       stroke="rgb(0, 0, 0)"
       stroke-width="30.00"
       stroke-opacity="1.00"
       stroke-linejoin="round"
       id="path860"
       style="stroke-width:70.86614175;stroke-miterlimit:4;stroke-dasharray:none" />
  </g>
</svg>
