<?xml version="1.0" encoding="iso-8859-1"?>
<!-- Uploaded to: SVG Repo, www.svgrepo.com, Generator: SVG Repo Mixer Tools -->
<svg fill="#000000" height="800px" width="800px" version="1.1" id="Layer_1" xmlns="http://www.w3.org/2000/svg" xmlns:xlink="http://www.w3.org/1999/xlink" 
	 viewBox="0 0 512.053 512.053" xml:space="preserve">
<g>
	<g>
		<g>
			<path d="M408.675,47.37c-1.216-13.483-2.389-26.197-3.328-37.568c-0.427-5.056-4.331-9.109-9.344-9.707
				c-4.885-0.683-9.771,2.368-11.392,7.168c-18.389,54.379-30.507,59.456-40.725,57.045c-6.784-1.643-15.253-4.331-24.405-7.232
				c-21.291-6.763-45.397-14.4-63.445-14.4s-42.155,7.659-63.445,14.4c-9.152,2.88-17.621,5.589-24.405,7.232
				c-10.219,2.517-22.336-2.645-40.725-57.045c-1.621-4.8-6.357-7.851-11.392-7.168c-5.035,0.619-8.917,4.672-9.344,9.707
				c-0.939,11.371-2.112,24.107-3.328,37.568c-5.76,63.232-12.928,141.931-7.253,178.304
				c2.923,18.688,28.395,107.008,64.064,180.693c0.277,2.731,1.472,5.141,3.413,6.891c27.072,54.187,59.563,98.795,92.373,98.795
				s65.301-44.608,92.373-98.795c1.941-1.728,3.157-4.139,3.413-6.869c35.669-73.685,61.184-162.027,64.107-180.693
				C421.603,189.301,414.435,110.602,408.675,47.37z M394.808,222.389c-3.605,23.061-20.48,77.504-42.795,131.349v-76.395
				c0-5.888-4.779-10.667-10.667-10.667c-5.888,0-10.667,4.779-10.667,10.667v123.776c-20.693,42.155-43.541,77.248-64,86.891
				V192.031c0-5.888-4.779-10.667-10.667-10.667s-10.667,4.779-10.667,10.667v296c-20.459-9.643-43.307-44.736-64-86.891V234.698
				c0-5.888-4.779-10.667-10.667-10.667s-10.667,4.779-10.667,10.667v119.061c-22.315-53.867-39.189-108.309-42.795-131.371
				c-5.12-32.704,1.323-106.133,6.869-167.104c11.371,21.035,26.517,35.264,49.109,29.781c7.168-1.749,16.128-4.565,25.813-7.637
				c18.837-5.973,42.261-13.397,57.003-13.397s38.165,7.424,57.003,13.397c9.664,3.072,18.645,5.888,25.813,7.637
				c22.571,5.461,37.717-8.747,49.109-29.781C393.486,116.255,399.928,189.685,394.808,222.389z"/>
			<path d="M312.568,94.73c-40.171-12.395-72.917-12.395-113.088,0c-5.632,1.728-8.789,7.701-7.04,13.333
				c1.728,5.632,7.68,8.832,13.333,7.04c36.075-11.115,64.427-11.115,100.501,0c1.045,0.32,2.091,0.469,3.136,0.469
				c4.565,0,8.789-2.944,10.197-7.509C321.358,102.431,318.2,96.458,312.568,94.73z"/>
		</g>
	</g>
</g>
</svg>