<?xml version="1.0" encoding="iso-8859-1"?>
<!-- Uploaded to: SVG Repo, www.svgrepo.com, Generator: SVG Repo Mixer Tools -->
<svg fill="#000000" version="1.1" id="Layer_1" xmlns="http://www.w3.org/2000/svg" xmlns:xlink="http://www.w3.org/1999/xlink" 
	 viewBox="0 0 512 512" xml:space="preserve">
<g>
	<g>
		<path d="M363.751,249.649c-22.42-34.381-41.788-64.095-41.951-101.209v-0.469C321.8,116.716,310.633,0,256.003,0
			c-54.632,0-65.798,116.716-65.798,147.971c0,37.334-19.444,67.152-41.957,101.678c-26.36,40.425-56.238,86.243-56.238,151.936
			v26.116v12.218v40.268h33.391v-29.67l78.914,25.045h34.989V512h33.391v-36.438h34.988l78.915-25.045v29.67h33.391v-40.269v-12.218
			v-26.116C419.99,335.892,390.111,290.074,363.751,249.649z M190.205,436.05l-64.805-20.567v-13.899
			c0-55.768,25.834-95.384,50.817-133.697c4.699-7.207,9.427-14.465,13.988-21.846V436.05z M288.409,148.452v293.72h-15.714v-79.147
			h-33.391v79.146h-15.707v-294.2c0-19.413,3.518-50.853,11.376-77.331c8.353-28.144,17.775-37.249,21.03-37.249
			c3.253,0,12.676,9.105,21.03,37.249c7.859,26.478,11.376,57.918,11.376,77.332h-0.008
			C288.401,148.134,288.408,148.291,288.409,148.452z M386.597,415.484l-64.798,20.565V246.055
			c4.558,7.376,9.284,14.631,13.981,21.833c24.983,38.312,50.817,77.929,50.817,133.697V415.484z"/>
	</g>
</g>
<g>
	<g>
		<rect x="237.222" y="117.081" width="37.555" height="33.391"/>
	</g>
</g>
</svg>